<?xml version="1.0" encoding="iso-8859-1"?>
<!-- Generator: Adobe Illustrator 19.0.0, SVG Export Plug-In . SVG Version: 6.00 Build 0)  -->
<svg version="1.1" id="Layer_1" xmlns="http://www.w3.org/2000/svg" xmlns:xlink="http://www.w3.org/1999/xlink" x="0px" y="0px"
	 viewBox="0 0 512 512" style="enable-background:new 0 0 512 512;" xml:space="preserve">
<g>
	<g>
		<path d="M256,0C114.842,0,0,114.842,0,256c0,141.137,114.866,255.986,255.975,256c0.003,0,0.004,0,0.007,0
			c0.004,0,0.008,0,0.014,0c0.001,0,0.004,0,0.006,0c0.004,0,0.008,0,0.014,0c0.076,0,0.152,0,0.228-0.001
			c0.011,0,0.023-0.001,0.034-0.001C397.309,511.846,512,397.067,512,256C512,114.842,397.158,0,256,0z M42.308,253.414
			C43.618,143.867,127.743,53.886,234.862,43.32v110.445c-26.207,24.02-63.821,32.541-98.011,21.64
			c-13.09-4.171-26.654,5.08-27.517,18.814C107.114,229.566,76.472,255.531,42.308,253.414z M80.697,378.107
			c61.231-41.872,139.328,3.943,152.321,90.378C170.067,461.724,115.219,427.52,80.697,378.107z M234.863,371.384
			c-44.293-52.184-115.517-68.513-174.872-30.237c-6.262-14.357-10.989-29.528-13.976-45.312c0.086,0,0.172,0.004,0.259,0.004
			c45.341,0,87.296-29.84,100.923-74.874c30.234,4.247,61.041-1.43,87.667-15.759V371.384z M277.138,216.716
			c31.215,16.864,31.325,61.646,0,78.569V216.716z M277.138,340.283c87.29-21.902,87.365-146.646,0-168.566v-43.15
			c143.305,23.692,143.24,231.184,0,254.866V340.283z M277.138,468.68v-42.535c84.6-10.449,150.31-82.764,150.31-170.144
			s-65.71-159.696-150.31-170.144V43.32C385.1,53.97,469.724,145.285,469.724,256S385.1,458.03,277.138,468.68z"/>
	</g>
</g>
<g>
</g>
<g>
</g>
<g>
</g>
<g>
</g>
<g>
</g>
<g>
</g>
<g>
</g>
<g>
</g>
<g>
</g>
<g>
</g>
<g>
</g>
<g>
</g>
<g>
</g>
<g>
</g>
<g>
</g>
</svg>
